<?xml version="1.0" standalone="no"?>
<!DOCTYPE svg PUBLIC "-//W3C//DTD SVG 20010904//EN"
 "http://www.w3.org/TR/2001/REC-SVG-20010904/DTD/svg10.dtd">
<svg version="1.0" xmlns="http://www.w3.org/2000/svg"
 width="700.000000pt" height="700.000000pt" viewBox="0 0 700.000000 700.000000"
 preserveAspectRatio="xMidYMid meet">
<metadata>
Created by potrace 1.11, written by Peter Selinger 2001-2013
</metadata>
<g transform="translate(0.000000,700.000000) scale(0.100000,-0.100000)"
fill="#000000" stroke="none">
<path d="M3859 5886 c-2 -2 -35 -7 -74 -11 -339 -33 -712 -212 -959 -461 -90
-91 -206 -227 -206 -243 0 -4 60 -7 134 -7 183 -2 300 -11 417 -34 177 -34
414 -124 563 -212 57 -35 198 -129 206 -138 3 -3 18 -16 34 -28 15 -12 60 -50
98 -84 69 -62 69 -62 136 -64 417 -12 810 -151 1112 -393 36 -29 116 -102 178
-162 63 -61 116 -108 119 -106 22 22 24 423 3 557 -106 673 -647 1233 -1315
1360 -33 6 -71 13 -85 16 -34 7 -355 16 -361 10z"/>
<path d="M2699 4976 c-2 -2 -42 -7 -89 -11 -46 -3 -87 -8 -90 -10 -3 -2 -23
-6 -45 -9 -191 -30 -443 -142 -630 -280 -374 -274 -606 -661 -672 -1121 -15
-104 -8 -425 12 -519 36 -176 70 -277 146 -431 111 -228 261 -411 464 -570 79
-62 228 -156 295 -187 159 -74 276 -112 437 -142 108 -21 374 -28 483 -13 291
40 507 123 754 289 112 76 281 243 378 372 220 294 333 655 322 1021 -3 72 -6
139 -8 150 -1 11 -6 45 -10 75 -24 177 -133 473 -216 590 -11 15 -20 31 -20
34 0 4 -19 33 -42 64 -191 259 -442 461 -701 568 -34 13 -71 29 -82 34 -45 20
-179 55 -330 85 -36 7 -349 17 -356 11z"/>
<path d="M4305 4411 c-3 -5 -1 -12 5 -16 14 -9 130 -206 166 -285 61 -128 119
-311 143 -445 22 -125 26 -175 25 -355 0 -219 -21 -356 -84 -550 -175 -538
-596 -975 -1120 -1162 -51 -18 -251 -75 -294 -84 -10 -2 -21 -6 -24 -8 -13
-14 204 -160 333 -225 98 -48 281 -115 347 -126 18 -3 49 -10 68 -15 110 -27
405 -34 550 -13 521 76 973 390 1222 850 65 119 141 324 164 437 40 200 40
504 1 686 -2 8 -7 31 -11 50 -4 19 -21 78 -38 130 -185 573 -695 1015 -1286
1114 -144 24 -161 26 -167 17z"/>
</g>
</svg>
